{
    "asset" : {
        "generator" : "Khronos glTF Blender I/O v1.1.45",
        "version" : "2.0"
    },
    "scene" : 0,
    "scenes" : [
        {
            "name" : "Scene",
            "nodes" : [
                0
            ]
        }
    ],
    "nodes" : [
        {
            "mesh" : 0,
            "name" : "pc.case"
        }
    ],
    "materials" : [
        {
            "doubleSided" : true,
            "emissiveFactor" : [
                0,
                0,
                0
            ],
            "name" : "pc.case.material",
            "pbrMetallicRoughness" : {
                "baseColorTexture" : {
                    "index" : 0,
                    "texCoord" : 0
                },
                "metallicFactor" : 0,
                "roughnessFactor" : 0.5
            }
        }
    ],
    "meshes" : [
        {
            "name" : "Cube.003",
            "primitives" : [
                {
                    "attributes" : {
                        "POSITION" : 0,
                        "NORMAL" : 1,
                        "TEXCOORD_0" : 2
                    },
                    "indices" : 3,
                    "material" : 0
                }
            ]
        }
    ],
    "textures" : [
        {
            "source" : 0
        }
    ],
    "images" : [
        {
            "bufferView" : 4,
            "mimeType" : "image/png",
            "name" : "pc.case"
        }
    ],
    "accessors" : [
        {
            "bufferView" : 0,
            "componentType" : 5126,
            "count" : 962,
            "max" : [
                21.474773406982422,
                -0.9985717535018921,
                -6.565960884094238
            ],
            "min" : [
                4.53342342376709,
                -3.7985715866088867,
                -21.619098663330078
            ],
            "type" : "VEC3"
        },
        {
            "bufferView" : 1,
            "componentType" : 5126,
            "count" : 962,
            "type" : "VEC3"
        },
        {
            "bufferView" : 2,
            "componentType" : 5126,
            "count" : 962,
            "type" : "VEC2"
        },
        {
            "bufferView" : 3,
            "componentType" : 5123,
            "count" : 1584,
            "type" : "SCALAR"
        }
    ],
    "bufferViews" : [
        {
            "buffer" : 0,
            "byteLength" : 11544,
            "byteOffset" : 0
        },
        {
            "buffer" : 0,
            "byteLength" : 11544,
            "byteOffset" : 11544
        },
        {
            "buffer" : 0,
            "byteLength" : 7696,
            "byteOffset" : 23088
        },
        {
            "buffer" : 0,
            "byteLength" : 3168,
            "byteOffset" : 30784
        },
        {
            "buffer" : 0,
            "byteLength" : 2588,
            "byteOffset" : 33952
        }
    ],
    "buffers" : [
        {
            "byteLength" : 36540,
            "uri" : "data:application/octet-stream;base64,"
        }
    ]
}
