{
    "asset" : {
        "generator" : "Khronos glTF Blender I/O v1.1.45",
        "version" : "2.0"
    },
    "scene" : 0,
    "scenes" : [
        {
            "name" : "Scene",
            "nodes" : [
                0
            ]
        }
    ],
    "nodes" : [
        {
            "mesh" : 0,
            "name" : "pc.keyboard"
        }
    ],
    "materials" : [
        {
            "doubleSided" : true,
            "emissiveFactor" : [
                0,
                0,
                0
            ],
            "name" : "pc.keyboard.material",
            "pbrMetallicRoughness" : {
                "baseColorTexture" : {
                    "index" : 0,
                    "texCoord" : 0
                },
                "metallicFactor" : 0,
                "roughnessFactor" : 0.5
            }
        }
    ],
    "meshes" : [
        {
            "name" : "Cube.004",
            "primitives" : [
                {
                    "attributes" : {
                        "POSITION" : 0,
                        "NORMAL" : 1,
                        "TEXCOORD_0" : 2
                    },
                    "indices" : 3,
                    "material" : 0
                }
            ]
        }
    ],
    "textures" : [
        {
            "source" : 0
        }
    ],
    "images" : [
        {
            "bufferView" : 4,
            "mimeType" : "image/png",
            "name" : "pc.keyboard"
        }
    ],
    "accessors" : [
        {
            "bufferView" : 0,
            "componentType" : 5126,
            "count" : 3566,
            "max" : [
                25.040199279785156,
                -2.2996857166290283,
                1.151430606842041
            ],
            "min" : [
                7.991573810577393,
                -3.670565128326416,
                -17.481595993041992
            ],
            "type" : "VEC3"
        },
        {
            "bufferView" : 1,
            "componentType" : 5126,
            "count" : 3566,
            "type" : "VEC3"
        },
        {
            "bufferView" : 2,
            "componentType" : 5126,
            "count" : 3566,
            "type" : "VEC2"
        },
        {
            "bufferView" : 3,
            "componentType" : 5123,
            "count" : 5586,
            "type" : "SCALAR"
        }
    ],
    "bufferViews" : [
        {
            "buffer" : 0,
            "byteLength" : 42792,
            "byteOffset" : 0
        },
        {
            "buffer" : 0,
            "byteLength" : 42792,
            "byteOffset" : 42792
        },
        {
            "buffer" : 0,
            "byteLength" : 28528,
            "byteOffset" : 85584
        },
        {
            "buffer" : 0,
            "byteLength" : 11172,
            "byteOffset" : 114112
        },
        {
            "buffer" : 0,
            "byteLength" : 22782,
            "byteOffset" : 125284
        }
    ],
    "buffers" : [
        {
            "byteLength" : 148068,
            "uri" : "data:application/octet-stream;base64,"
        }
    ]
}
